Coordinates
version=1
nRows=12
nColumns=35
inDegrees=yes

Units are S.I. units (second, meters, Newtons, ...)
If the header above contains a line with 'inDegrees', this indicates whether rotational values are in degrees (yes) or radians (no).

endheader
time	joint_0	joint_1	joint_2	joint_3	joint_4	joint_5	joint_6	joint_7	joint_8	joint_9	joint_10	joint_11	joint_12	joint_13	joint_14	joint_15	joint_16	joint_17	joint_18	joint_19	joint_20	joint_21	joint_22	joint_23	joint_24	joint_25	joint_26	joint_27	joint_28	joint_29	joint_30	joint_31	joint_32	joint_33
3.816743	50.177807	5.2753367	54.832733	40.47572	40.454903	0.56371367	2.7577405	-0.18014199	-2.549027	-10.872952	-0.74283594	2.9357708	-0.072276995	-2.308704	-14.133729	0.024314998	4.3572626	-9.854999	1.035769	-1.9714428	20.230505	-10.436293	13.479507	36.916286	79.73362	0.0	0.0	21.923304	-8.294454	9.926831	32.37165	72.28847	0.0	0.0
3.83341	50.027576	5.2873116	54.889797	40.468758	40.46769	0.69308233	2.640371	0.54750097	-2.624872	-10.663762	-0.980348	2.5274677	0.565676	-2.253303	-13.996407	0.018276999	3.8782136	-9.821925	0.9943379	-1.861035	21.86101	-10.701044	13.7022915	37.736732	79.66684	0.0	0.0	23.440628	-8.373717	9.5879135	33.16644	72.137344	0.0	0.0
3.850077	49.886517	5.309886	54.964626	40.45539	40.48597	0.83089906	2.5225756	1.276156	-2.733898	-10.505101	-1.21599	2.1393929	1.2232269	-2.1706908	-13.886415	-0.008298	3.4137158	-9.755518	0.94697696	-1.7542	23.586025	-10.9655695	13.963671	38.473835	79.620605	0.0	0.0	25.043291	-8.430164	9.280717	33.924057	72.003136	0.0	0.0
3.866744	49.739094	5.3333774	55.038593	40.438015	40.50717	0.97331333	2.4071674	1.9978719	-2.867682	-10.3917055	-1.4464369	1.772897	1.892138	-2.0708017	-13.808775	-0.068551	2.9829688	-9.662584	0.89964396	-1.6509739	25.416813	-11.236438	14.29905	39.115883	79.59948	0.0	0.0	26.73334	-8.460137	9.0274315	34.61781	71.88545	0.0	0.0
3.883411	49.57752	5.3504515	55.08455	40.420242	40.52765	1.119023	2.2950902	2.7176938	-3.012527	-10.308948	-1.676405	1.4216939	2.578101	-1.9706198	-13.756048	-0.17899798	2.6041608	-9.549391	0.859878	-1.5483398	27.369806	-11.5236845	14.748915	39.659966	79.6012	0.0	0.0	28.510704	-8.463726	8.84338	35.240215	71.776566	0.0	0.0
3.900078	49.40592	5.359103	55.083515	40.405716	40.543674	1.267483	2.1882033	3.4405649	-3.1543128	-10.250205	-1.9192028	1.0790548	3.2914107	-1.889874	-13.71886	-0.361607	2.296244	-9.422583	0.83525795	-1.4433199	29.458714	-11.831688	15.326885	40.097244	79.61745	0.0	0.0	30.373383	-8.44414	8.749199	35.79113	71.66901	0.0	0.0
3.916745	49.235004	5.3620253	55.03636	40.39702	40.552673	1.4185289	2.086984	4.1711235	-3.283131	-10.212825	-2.19412	0.738638	4.0452437	-1.84491	-13.688001	-0.64220697	2.0721068	-9.280497	0.83026993	-1.331489	31.684679	-12.160563	16.03826	40.40439	79.636856	0.0	0.0	32.3107	-8.40562	8.780025	36.267696	71.55601	0.0	0.0
3.9334120000000006	49.075035	5.363572	54.95374	40.39529	40.553764	1.573598	1.9856247	4.923172	-3.394624	-10.180447	-2.5204039	0.390519	4.8598704	-1.8441149	-13.647318	-1.04307	1.9313799	-9.101298	0.84481597	-1.2050469	34.03112	-12.51671	16.923447	40.550278	79.64731	0.0	0.0	34.297485	-8.353111	8.981965	36.66522	71.42521	0.0	0.0
3.9500790000000006	48.930134	5.3667808	54.842243	40.40029	40.547527	1.7349557	1.8735822	5.718224	-3.4891958	-10.125458	-2.9122257	0.028659	5.7576447	-1.8866249	-13.572375	-1.5757738	1.8657489	-8.852731	0.875632	-1.0553249	36.462944	-12.910372	18.024837	40.52091	79.63491	0.0	0.0	36.29996	-8.293014	9.390224	36.99034	71.26033	0.0	0.0
3.9667460000000005	48.796062	5.3719373	54.70645	40.410305	40.535805	1.9039783	1.7425592	6.5752835	-3.5714557	-10.027397	-3.3783257	-0.33370697	6.7532806	-1.9635258	-13.438489	-2.2407918	1.8690889	-8.517197	0.9171829	-0.87790096	38.92701	-13.340657	19.303017	40.345463	79.58296	0.0	0.0	38.28839	-8.231663	10.004528	37.272747	71.051254	0.0	0.0
3.9834130000000005	48.662964	5.3758907	54.553017	40.422565	40.52112	2.0821834	1.5891789	7.5121713	-3.648167	-9.874496	-3.9272037	-0.66734	7.8569217	-2.061842	-13.226833	-3.0342927	1.938198	-8.098261	0.961362	-0.67581093	41.363426	-13.791809	20.642725	40.087128	79.47675	0.0	0.0	40.247658	-8.17515	10.797159	37.550358	70.79834	0.0	0.0
4.0000800000000005	48.520412	5.3741717	54.387543	40.434563	40.505436	2.2732716	1.4120154	8.555604	-3.723763	-9.650587	-4.573863	-0.94794697	9.085776	-2.1709678	-12.924522	-3.9579248	2.067299	-7.6072807	0.9993739	-0.45799896	43.72719	-14.24372	21.946873	39.804184	79.31082	0.0	0.0	42.18138	-8.131563	11.746276	37.839596	70.50752	0.0	0.0
